<?xml version="1.0" standalone="no"?>
<!DOCTYPE svg PUBLIC "-//W3C//DTD SVG 20010904//EN"
 "http://www.w3.org/TR/2001/REC-SVG-20010904/DTD/svg10.dtd">
<svg version="1.0" xmlns="http://www.w3.org/2000/svg"
 width="250.000000pt" height="313.000000pt" viewBox="0 0 250.000000 313.000000"
 preserveAspectRatio="xMidYMid meet">

<g transform="translate(0.000000,313.000000) scale(0.100000,-0.100000)"
fill="#000000" stroke="none">
<path d="M1125 3115 c-232 -38 -432 -135 -625 -306 -36 -31 -103 -76 -150 -99
-103 -52 -201 -108 -257 -149 l-41 -30 19 -51 c21 -55 25 -133 8 -177 -5 -15
-25 -46 -44 -69 -34 -41 -34 -41 -21 -90 19 -71 43 -112 77 -133 29 -18 30
-21 34 -111 15 -304 138 -584 351 -798 l63 -63 -33 -44 c-19 -24 -42 -67 -51
-94 l-16 -50 64 -79 c35 -43 78 -99 95 -124 l31 -46 -190 -77 c-104 -43 -187
-80 -185 -83 3 -2 67 -32 141 -66 75 -33 136 -65 137 -69 0 -5 -48 -70 -108
-145 -59 -76 -112 -143 -117 -150 -6 -7 32 3 84 21 367 133 697 302 757 388
12 18 5 15 -28 -12 -70 -57 -206 -130 -410 -221 -95 -43 -334 -138 -337 -134
-2 2 41 61 97 131 55 70 98 130 96 134 -3 4 -64 34 -136 66 l-131 58 152 64
c83 35 161 66 173 69 20 5 27 -4 56 -67 18 -40 35 -93 38 -119 8 -91 43 -105
133 -55 124 69 234 117 271 119 21 0 38 4 38 7 0 24 -110 78 -200 99 -90 21
-91 23 -20 69 117 76 153 82 505 91 171 5 351 14 400 20 295 35 466 96 584
206 l55 51 -51 214 -52 214 35 87 c59 149 78 250 77 433 0 170 -11 241 -58
381 -129 384 -464 684 -865 775 -116 26 -328 33 -445 14z m410 -64 c117 -25
171 -44 280 -97 293 -143 507 -410 597 -744 32 -119 36 -354 8 -490 -36 -177
-123 -362 -209 -448 -49 -48 -194 -122 -281 -143 -76 -19 -251 -15 -455 10
-461 55 -699 46 -844 -35 l-43 -24 -40 32 c-77 61 -188 208 -250 333 -101 201
-139 435 -107 662 12 87 63 255 82 271 30 25 216 114 281 134 39 12 72 23 74
24 2 1 -4 39 -13 84 l-16 81 68 82 c105 127 101 119 69 108 -14 -6 -39 -17
-56 -26 -51 -26 -47 -16 9 22 85 56 228 120 332 147 127 33 125 33 284 34 103
1 164 -3 230 -17z m-851 -213 c-4 -7 -30 -39 -57 -71 l-50 -58 12 -64 c6 -36
14 -71 17 -80 3 -8 1 -15 -4 -15 -55 0 -310 -126 -446 -219 -26 -18 -49 -31
-51 -29 -14 15 33 57 144 127 72 45 131 85 131 87 0 6 6 10 -126 -69 -134 -80
-144 -84 -144 -63 0 10 36 40 88 72 48 31 92 61 97 67 10 10 -6 2 -120 -67
-53 -32 -61 -34 -66 -18 -5 13 8 26 57 57 113 72 94 69 -31 -6 -31 -18 -36
-19 -41 -5 -3 9 -1 23 6 31 11 13 10 14 -4 9 -33 -13 -14 6 53 50 59 39 181
102 471 243 77 37 73 36 64 21z m1691 -1474 c5 -27 1 -38 -24 -67 -17 -19 -56
-52 -86 -72 -30 -21 -55 -40 -55 -42 0 -12 90 46 130 83 l48 45 6 -36 c4 -20
10 -43 12 -50 7 -17 -63 -86 -133 -133 -29 -19 -53 -37 -53 -39 0 -10 107 58
151 96 l47 41 7 -41 c10 -57 -12 -85 -145 -182 -15 -11 -8 -9 19 5 24 13 66
43 92 66 50 45 51 45 63 -8 8 -37 -76 -113 -178 -161 -184 -86 -385 -117 -836
-128 -287 -7 -321 -10 -380 -30 -127 -44 -223 -116 -295 -223 l-32 -48 -26 62
c-33 76 -33 80 -3 143 39 83 132 161 240 201 67 25 44 29 -26 5 -118 -40 -206
-118 -245 -214 l-16 -38 -23 35 c-31 46 -30 62 7 122 47 73 124 136 215 174
43 18 45 19 14 14 -99 -19 -209 -99 -256 -187 l-28 -55 -19 25 c-18 22 -18 29
-7 66 27 91 97 163 215 224 76 38 44 37 -42 -2 -91 -41 -164 -123 -197 -219
-6 -18 -10 -15 -39 19 -36 44 -36 58 -2 125 30 58 102 125 168 156 138 63 369
71 750 28 308 -36 456 -37 557 -6 152 48 278 134 351 240 36 54 43 55 54 6z"/>
<path d="M1218 2741 c-1 -50 -2 -101 -2 -113 -1 -12 4 -23 11 -25 13 -5 21 42
25 147 3 64 0 75 -15 78 -15 3 -17 -7 -19 -87z"/>
<path d="M1008 2813 c-21 -5 -21 -6 -8 -75 25 -124 32 -148 46 -148 16 0 16 0
5 57 -7 38 -6 42 15 46 24 4 64 -16 64 -33 0 -26 21 -59 34 -54 12 4 12 12 4
37 -6 18 -17 40 -25 49 -13 14 -12 19 6 37 46 46 9 92 -71 90 -29 -1 -61 -3
-70 -6z m116 -35 c15 -25 -3 -50 -43 -61 -18 -4 -35 -6 -38 -3 -3 2 -7 23 -10
46 l-6 41 43 -3 c28 -2 47 -9 54 -20z"/>
<path d="M1310 2714 c-6 -58 -10 -108 -7 -111 4 -3 26 -9 49 -14 24 -4 50 -9
57 -11 8 -2 15 2 18 9 3 7 -13 14 -42 18 -25 4 -48 11 -51 16 -2 5 2 47 10 95
16 89 15 104 -8 104 -9 0 -17 -32 -26 -106z"/>
<path d="M860 2778 c-47 -13 -87 -44 -106 -80 -21 -40 -6 -97 33 -127 31 -25
97 -28 147 -7 44 18 46 23 34 79 -10 50 -17 53 -67 36 -36 -13 -33 -24 7 -24
19 0 27 -7 33 -28 7 -26 4 -30 -28 -43 -67 -28 -133 12 -133 81 0 46 59 95
114 95 16 0 26 6 26 15 0 17 -10 17 -60 3z"/>
<path d="M1489 2669 c-17 -55 -29 -102 -27 -104 6 -7 99 -45 109 -45 24 0 4
20 -36 37 -32 13 -43 22 -39 33 36 92 62 169 57 174 -20 20 -35 -3 -64 -95z"/>
<path d="M490 2324 c-55 -54 -100 -105 -100 -115 0 -15 214 -209 241 -218 6
-2 26 12 45 30 l34 33 60 -59 c33 -33 60 -62 60 -65 0 -3 -19 -25 -41 -50 -91
-102 -147 -211 -174 -341 -14 -66 -21 -189 -10 -189 2 0 22 7 42 15 101 39
325 80 526 96 207 15 514 -17 582 -62 20 -14 23 -19 10 -15 -171 43 -607 56
-790 22 -121 -22 -236 -57 -332 -101 -81 -37 -97 -52 -30 -29 78 28 281 63
427 75 168 13 429 6 605 -16 114 -15 364 -59 402 -71 11 -4 6 5 -12 22 -29 27
-30 30 -31 123 -2 168 -62 328 -164 443 l-49 55 74 73 74 74 26 -24 25 -23
122 121 c68 67 118 122 111 122 -6 0 -58 -38 -114 -85 -57 -47 -111 -85 -121
-85 -21 0 -68 42 -68 60 0 20 22 53 96 142 41 49 74 94 74 101 0 7 -55 -43
-122 -111 l-121 -122 23 -25 24 -26 -75 -74 -74 -75 -54 36 c-69 47 -160 87
-183 81 -10 -3 -16 -1 -12 4 3 5 0 9 -5 9 -6 0 -11 20 -11 44 0 35 4 45 20 49
30 8 44 54 25 83 -15 24 -16 24 -220 24 l-205 0 -16 -25 c-14 -21 -15 -31 -5
-51 6 -14 20 -28 31 -31 16 -4 20 -14 20 -47 l0 -41 -64 -23 c-35 -13 -90 -39
-122 -58 l-57 -35 -30 28 c-58 53 -97 95 -97 102 0 4 11 18 25 31 14 13 25 33
25 44 -1 21 -184 236 -208 244 -7 2 -58 -40 -112 -94z m192 -51 c75 -74 93
-103 65 -103 -17 0 -179 164 -171 173 15 15 31 4 106 -70z m-60 -60 c75 -74
93 -103 65 -103 -17 0 -179 164 -171 173 15 15 31 4 106 -70z m-60 -60 c75
-74 93 -103 65 -103 -17 0 -179 164 -171 173 15 15 31 4 106 -70z m878 -20 l0
-38 -110 3 c-104 4 -112 2 -161 -24 -83 -45 -181 -143 -221 -221 -46 -87 -61
-157 -56 -261 l3 -82 -30 -5 c-16 -2 -49 -6 -72 -10 l-43 -5 0 52 c0 129 67
265 186 383 44 44 112 98 150 121 58 34 69 46 72 70 5 55 2 54 147 54 l135 0
0 -37z m-573 -180 c-10 -9 -138 118 -130 130 3 5 35 -20 71 -57 36 -36 63 -69
59 -73z m991 40 c-43 -42 -81 -74 -85 -70 -9 10 127 146 147 147 8 0 -20 -35
-62 -77z m-210 -2 c138 -93 231 -236 258 -394 21 -120 17 -151 -18 -155 l-28
-3 0 73 c-1 210 -97 393 -261 495 -33 20 -59 37 -59 39 0 9 57 -20 108 -55z"/>
<path d="M134 2544 c-18 -14 -18 -15 4 -4 12 6 22 13 22 15 0 8 -5 6 -26 -11z"/>
<path d="M1269 1036 c-15 -26 -30 -36 -65 -45 l-45 -12 29 -34 c26 -29 30 -39
25 -74 -6 -45 -2 -48 48 -27 27 12 37 12 65 0 45 -19 44 -19 44 27 0 28 8 51
26 74 l25 34 -40 11 c-28 7 -46 20 -61 45 -12 19 -24 35 -26 35 -3 0 -14 -15
-25 -34z"/>
<path d="M1632 1004 c-15 -23 -30 -34 -47 -34 -33 0 -38 -13 -15 -43 12 -15
20 -40 20 -62 0 -32 3 -36 18 -29 23 10 71 11 101 0 23 -8 24 -7 18 28 -5 29
-1 42 19 65 l25 30 -40 11 c-24 6 -42 18 -46 29 -12 40 -29 41 -53 5z"/>
<path d="M1960 1015 c-7 -13 -26 -27 -42 -30 l-28 -7 19 -27 c12 -17 17 -36
14 -54 -5 -26 -5 -27 27 -16 23 8 38 9 56 0 23 -10 24 -9 24 21 0 18 9 41 21
54 l21 22 -32 7 c-19 4 -36 16 -42 31 -14 30 -21 30 -38 -1z"/>
</g>
</svg>
